<svg height="586" width="1016" xmlns="http://www.w3.org/2000/svg"><path d="m293 5c-159.05801 0-288 128.94199-288 288 0 159.05805 128.94199 288 288 288 85.47599 0 162.2551-37.2384 215-96.375 52.7449 59.1366 129.52401 96.375 215 96.375 159.05801 0 288-128.94195 288-288 0-159.05801-128.94199-288-288-288-85.47599 0-162.2551 37.23841-215 96.375-52.7449-59.13659-129.52401-96.375-215-96.375zm0 63c124.26407 0 225 100.73593 225 225s-100.73593 225-225 225-225-100.73593-225-225 100.73593-225 225-225zm-122.25 115.65625v222.5h147.9375c67.45109 0 120.78132-41.64938 120.78125-111.25-.00008-69.60062-55.83055-111.25-120.78125-111.25zm401.40625 15.5h66.4375l29.90625 103.3125 37.34375-103.3125h50.53125l37.34375 103.78125 29.90625-103.78125h66.4375l-62.3125 197h-57.0625l-39.8125-96.125-40.34375 96.125h-56.0625zm-330.90625 48.8125h67.03125c35.65837 0 56.18733 17.22226 56.1875 47.4375 0 29.99555-19.29296 45.9375-55.1875 45.9375h-68.03125z" fill="#012d5b"/></svg>